# 3ds Max Wavefront OBJ Exporter v0.97b - (c)2007 guruware
# File Created: 05.03.2012 03:56:18

mtllib wall.mtl

#
# object Box001
#

v  39.3701 0.0000 -3.9370
v  -39.3701 0.0000 -3.9370
v  -39.3701 48.5694 -3.9370
v  39.3701 48.5694 -3.9370
v  -39.3701 0.0000 3.9370
v  39.3701 0.0000 3.9370
v  39.3701 48.5694 3.9370
v  -39.3701 48.5694 3.9370
# 8 vertices

vn -0.0000 0.0000 -1.0000
vn 0.0000 0.0000 1.0000
# 2 vertex normals

vt 0.0000 0.0000 0.0000
vt 10.0000 0.0000 0.0000
vt 10.0000 10.0000 0.0000
vt 0.0000 10.0000 0.0000
# 4 texture coords

g Box001
usemtl Material__2
s 16
f 1/1/1 2/2/1 3/3/1 
f 3/3/1 4/4/1 1/1/1 
s 64
f 5/1/2 6/2/2 7/3/2 
f 7/3/2 8/4/2 5/1/2 
# 4 faces

#
# object Box002
#

v  39.3701 48.5827 5.0796
v  -39.3701 48.5827 5.0797
v  -39.3701 48.5827 -5.0796
v  39.3701 48.5827 -5.0797
v  39.3701 53.5197 5.0796
v  39.3701 53.5197 -5.0797
v  -39.3701 53.5197 -5.0796
v  -39.3701 53.5197 5.0797
# 8 vertices

vn 0.0000 -1.0000 -0.0000
vn 0.0000 1.0000 -0.0000
vn -0.0000 0.0000 -1.0000
vn 0.0000 0.0000 1.0000
# 4 vertex normals

vt 10.0000 0.0000 0.0000
vt 10.0000 10.0000 0.0000
vt 0.0000 10.0000 0.0000
vt 0.0000 0.0000 0.0000
# 4 texture coords

g Box002
usemtl Material__4
s 2
f 9/5/3 10/6/3 11/7/3 
f 11/7/3 12/8/3 9/5/3 
s 4
f 13/8/4 14/5/4 15/6/4 
f 15/6/4 16/7/4 13/8/4 
s 16
f 12/8/5 11/5/5 15/6/5 
f 15/6/5 14/7/5 12/8/5 
s 64
f 10/8/6 9/5/6 13/6/6 
f 13/6/6 16/7/6 10/8/6 
# 8 faces

#
# object Box003
#

v  39.3701 55.1181 4.9213
v  43.3071 55.1181 4.9213
v  43.3071 55.1181 -4.9213
v  39.3701 55.1181 -4.9213
v  39.3701 0.0000 4.9213
v  43.3071 0.0000 4.9213
v  43.3071 0.0000 -4.9213
v  39.3701 0.0000 -4.9213
# 8 vertices

vn 0.0000 1.0000 -0.0000
vn 0.0000 0.0000 1.0000
vn 1.0000 0.0000 -0.0000
vn 0.0000 0.0000 -1.0000
vn -1.0000 0.0000 -0.0000
# 5 vertex normals

vt 0.0000 0.0000 0.0000
vt 10.0000 0.0000 0.0000
vt 10.0000 10.0000 0.0000
vt 0.0000 10.0000 0.0000
# 4 texture coords

g Box003
usemtl Material__4
s 4
f 17/9/7 18/10/7 19/11/7 
f 19/11/7 20/12/7 17/9/7 
s 8
f 21/9/8 22/10/8 18/11/8 
f 18/11/8 17/12/8 21/9/8 
s 16
f 22/9/9 23/10/9 19/11/9 
f 19/11/9 18/12/9 22/9/9 
s 32
f 23/9/10 24/10/10 20/11/10 
f 20/11/10 19/12/10 23/9/10 
s 64
f 24/9/11 21/10/11 17/11/11 
f 17/11/11 20/12/11 24/9/11 
# 10 faces

#
# object Box004
#

v  -43.3071 55.1181 4.9213
v  -39.3701 55.1181 4.9213
v  -39.3701 55.1181 -4.9213
v  -43.3071 55.1181 -4.9213
v  -43.3071 0.0000 4.9213
v  -39.3701 0.0000 4.9213
v  -39.3701 0.0000 -4.9213
v  -43.3071 0.0000 -4.9213
# 8 vertices

vn 0.0000 1.0000 -0.0000
vn 0.0000 0.0000 1.0000
vn 1.0000 0.0000 -0.0000
vn 0.0000 0.0000 -1.0000
vn -1.0000 0.0000 -0.0000
# 5 vertex normals

vt 0.0000 0.0000 0.0000
vt 10.0000 0.0000 0.0000
vt 10.0000 10.0000 0.0000
vt 0.0000 10.0000 0.0000
# 4 texture coords

g Box004
usemtl Material__4
s 4
f 25/13/12 26/14/12 27/15/12 
f 27/15/12 28/16/12 25/13/12 
s 8
f 29/13/13 30/14/13 26/15/13 
f 26/15/13 25/16/13 29/13/13 
s 16
f 30/13/14 31/14/14 27/15/14 
f 27/15/14 26/16/14 30/13/14 
s 32
f 31/13/15 32/14/15 28/15/15 
f 28/15/15 27/16/15 31/13/15 
s 64
f 32/13/16 29/14/16 25/15/16 
f 25/15/16 28/16/16 32/13/16 
# 10 faces

