# 3ds Max Wavefront OBJ Exporter v0.97b - (c)2007 guruware
# File Created: 29.02.2012 15:34:03

mtllib rock1.mtl

#
# object Box001
#

v  -14.6356 0.0000 14.7175
v  -14.6356 0.0000 3.9490
v  0.5271 -5.9429 6.1146
v  -3.8671 -1.7814 14.7175
v  9.0670 -4.8068 2.5727
v  6.9014 -1.7814 14.7175
v  16.6420 0.0000 3.5267
v  11.4891 0.0000 10.8421
v  -14.6356 0.0000 -6.8194
v  -6.0327 -2.7100 -2.4252
v  2.5071 -4.0379 -5.9671
v  16.2817 0.0000 -6.0308
v  -14.6356 0.0000 -17.5879
v  -3.8671 -1.0125 -17.5879
v  6.1945 -1.0125 -22.0309
v  14.2180 0.0000 -17.3175
v  -9.6103 5.3352 9.3326
v  -1.8599 8.3172 8.8707
v  -3.8671 11.4552 3.9490
v  -13.9978 6.0046 4.2367
v  4.2744 9.5451 8.0964
v  6.9014 11.4552 3.9490
v  11.7048 6.5631 9.6887
v  9.4528 5.3352 3.1810
v  -1.4789 10.2266 -3.1499
v  -16.1077 7.7580 -2.1607
v  7.6922 8.4733 -12.4941
v  11.6364 5.3352 -8.8342
v  -3.8784 6.7658 -15.5191
v  -15.4578 6.7658 -13.8195
v  7.8807 5.3352 -19.4400
v  14.8978 5.3352 -19.9542
v  -0.2589 2.6676 11.7607
v  -12.0271 2.6676 12.1400
v  6.9014 3.8955 14.7175
v  14.0422 3.8955 10.9720
v  17.6698 2.6676 3.9490
v  17.6698 2.6676 -6.8194
v  15.4885 2.6676 -17.5590
v  6.9014 2.6676 -22.2294
v  -3.8671 2.3449 -23.0370
v  -11.1979 2.3449 -16.9145
v  -22.1363 3.3370 -7.3565
v  -19.7279 3.3370 1.8725
# 44 vertices

vn -0.3014 -0.9457 0.1221
vn -0.3430 -0.9391 -0.0194
vn 0.0122 -0.9798 0.1996
vn -0.0568 -0.9291 0.3655
vn 0.3126 -0.9490 0.0418
vn 0.1807 -0.9423 0.2818
vn 0.5311 -0.8372 0.1308
vn 0.6221 -0.6488 0.4382
vn -0.2227 -0.9733 -0.0561
vn -0.2652 -0.9568 -0.1196
vn -0.0192 -0.9799 -0.1984
vn 0.3515 -0.9299 -0.1086
vn -0.0936 -0.9956 -0.0000
vn -0.0951 -0.9907 -0.0970
vn 0.0662 -0.9867 -0.1487
vn 0.2371 -0.9664 -0.0992
vn -0.3654 0.7841 0.5016
vn -0.1399 0.8265 0.5453
vn -0.2529 0.9561 0.1480
vn -0.3108 0.9127 0.2652
vn 0.2219 0.9227 0.3151
vn 0.5108 0.8128 0.2802
vn 0.4102 0.8598 -0.3042
vn 0.8217 0.5582 0.1152
vn -0.1108 0.9756 -0.1897
vn -0.1228 0.9904 0.0634
vn 0.1564 0.9617 -0.2251
vn 0.6733 0.7389 0.0279
vn -0.0394 0.9735 -0.2255
vn -0.0125 0.9963 -0.0855
vn -0.0531 0.9241 -0.3784
vn 0.2194 0.9568 -0.1906
vn 0.0457 0.6209 0.7826
vn -0.0199 0.4879 0.8727
vn -0.1784 0.6040 0.7768
vn -0.0209 0.6740 0.7385
vn 0.2554 -0.0636 0.9647
vn 0.0958 0.4303 0.8976
vn 0.6706 -0.4589 0.5829
vn 0.5217 0.2528 0.8149
vn -0.0017 0.4962 0.8682
vn -0.2782 0.8044 0.5249
vn -0.0670 0.6561 0.7517
vn 0.2816 0.7099 0.6455
vn 0.7402 -0.4684 0.4824
vn 0.8792 -0.3931 0.2690
vn 0.9090 0.3405 0.2404
vn 0.9448 0.2497 0.2121
vn 0.8740 -0.4768 -0.0936
vn 0.9552 0.2890 -0.0634
vn 0.8852 -0.4362 -0.1618
vn 0.9681 -0.1628 -0.1904
vn 0.3852 0.9225 -0.0244
vn 0.7801 0.5076 -0.3657
vn 0.3663 0.9279 0.0691
vn 0.8443 0.5312 -0.0703
vn 0.4694 -0.2640 -0.8426
vn 0.2169 -0.2594 -0.9411
vn 0.2355 0.3345 -0.9125
vn 0.2880 -0.3429 -0.8941
vn -0.3052 -0.7414 -0.5977
vn -0.2955 0.0321 -0.9548
vn 0.0230 0.2447 -0.9693
vn -0.3906 -0.0541 -0.9190
vn 0.1300 0.5876 -0.7986
vn -0.0540 -0.6737 -0.7370
vn -0.0525 0.8504 -0.5235
vn -0.3661 0.5715 -0.7344
vn -0.6415 0.4541 -0.6183
vn -0.4367 -0.8989 0.0353
vn -0.9764 0.0184 -0.2154
vn -0.6681 0.5416 -0.5102
vn -0.7022 -0.6627 0.2604
vn -0.9454 0.0339 0.3242
vn -0.7150 0.6991 -0.0000
vn -0.7111 0.6607 0.2403
vn -0.7496 0.6449 0.1488
vn -0.7130 -0.7009 0.0199
vn -0.5595 0.6898 0.4595
vn -0.4624 0.7821 0.4176
# 80 vertex normals

vt 1.0000 0.0000 0.0000
vt 1.0000 0.3333 0.0000
vt 0.6667 0.3333 0.0000
vt 0.6667 0.0000 0.0000
vt 0.3333 0.3333 0.0000
vt 0.3333 0.0000 0.0000
vt -0.0000 0.3333 0.0000
vt -0.0000 0.0000 0.0000
vt 1.0000 0.6667 0.0000
vt 0.6667 0.6667 0.0000
vt 0.3333 0.6667 0.0000
vt -0.0000 0.6667 0.0000
vt 1.0000 1.0000 0.0000
vt 0.6667 1.0000 0.0000
vt 0.3333 1.0000 0.0000
vt -0.0000 1.0000 0.0000
vt 0.0000 0.0000 0.0000
vt 0.0000 0.3333 0.0000
vt 0.0000 0.6667 0.0000
vt 0.0000 1.0000 0.0000
vt 0.3333 0.5000 0.0000
vt 0.0000 0.5000 0.0000
vt 0.6667 0.5000 0.0000
vt 1.0000 0.5000 0.0000
# 24 texture coords

g Box001
usemtl Material__25
s 2
f 1/1/1 2/2/2 3/3/3 
f 3/3/3 4/4/4 1/1/1 
f 4/4/4 3/3/3 5/5/5 
f 5/5/5 6/6/6 4/4/4 
f 6/6/6 5/5/5 7/7/7 
f 7/7/7 8/8/8 6/6/6 
f 2/2/2 9/9/9 10/10/10 
f 10/10/10 3/3/3 2/2/2 
f 3/3/3 10/10/10 11/11/11 
f 11/11/11 5/5/5 3/3/3 
f 5/5/5 11/11/11 12/12/12 
f 12/12/12 7/7/7 5/5/5 
f 9/9/9 13/13/13 14/14/14 
f 14/14/14 10/10/10 9/9/9 
f 10/10/10 14/14/14 15/15/15 
f 15/15/15 11/11/11 10/10/10 
f 11/11/11 15/15/15 16/16/16 
f 16/16/16 12/12/12 11/11/11 
s 4
f 17/17/17 18/6/18 19/5/19 
f 19/5/19 20/18/20 17/17/17 
f 18/6/18 21/4/21 22/3/22 
f 22/3/22 19/5/19 18/6/18 
f 21/4/21 23/1/23 24/2/24 
f 24/2/24 22/3/22 21/4/21 
f 20/18/20 19/5/19 25/11/25 
f 25/11/25 26/19/26 20/18/20 
f 19/5/19 22/3/22 27/10/27 
f 27/10/27 25/11/25 19/5/19 
f 22/3/22 24/2/24 28/9/28 
f 28/9/28 27/10/27 22/3/22 
f 26/19/26 25/11/25 29/15/29 
f 29/15/29 30/20/30 26/19/26 
f 25/11/25 27/10/27 31/14/31 
f 31/14/31 29/15/29 25/11/25 
f 27/10/27 28/9/28 32/13/32 
f 32/13/32 31/14/31 27/10/27 
s 8
f 1/17/33 4/6/34 33/21/35 
f 33/21/35 34/22/36 1/17/33 
f 4/6/34 6/4/37 35/23/38 
f 35/23/38 33/21/35 4/6/34 
f 6/4/37 8/1/39 36/24/40 
f 36/24/40 35/23/38 6/4/37 
f 34/22/36 33/21/35 18/15/41 
f 18/15/41 17/20/42 34/22/36 
f 33/21/35 35/23/38 21/14/43 
f 21/14/43 18/15/41 33/21/35 
f 35/23/38 36/24/40 23/13/44 
f 23/13/44 21/14/43 35/23/38 
s 16
f 8/17/45 7/6/46 37/21/47 
f 37/21/47 36/22/48 8/17/45 
f 7/6/46 12/4/49 38/23/50 
f 38/23/50 37/21/47 7/6/46 
f 12/4/49 16/1/51 39/24/52 
f 39/24/52 38/23/50 12/4/49 
f 36/22/48 37/21/47 24/15/53 
f 24/15/53 23/20/54 36/22/48 
f 37/21/47 38/23/50 28/14/55 
f 28/14/55 24/15/53 37/21/47 
f 38/23/50 39/24/52 32/13/56 
f 32/13/56 28/14/55 38/23/50 
s 32
f 16/17/57 15/6/58 40/21/59 
f 40/21/59 39/22/60 16/17/57 
f 15/6/58 14/4/61 41/23/62 
f 41/23/62 40/21/59 15/6/58 
f 14/4/61 13/1/63 42/24/64 
f 42/24/64 41/23/62 14/4/61 
f 39/22/60 40/21/59 31/15/65 
f 31/15/65 32/20/66 39/22/60 
f 40/21/59 41/23/62 29/14/67 
f 29/14/67 31/15/65 40/21/59 
f 41/23/62 42/24/64 30/13/68 
f 30/13/68 29/14/67 41/23/62 
s 64
f 13/17/69 9/6/70 43/21/71 
f 43/21/71 42/22/72 13/17/69 
f 9/6/70 2/4/73 44/23/74 
f 44/23/74 43/21/71 9/6/70 
f 2/4/73 1/1/75 34/24/76 
f 34/24/76 44/23/74 2/4/73 
f 42/22/72 43/21/71 26/15/77 
f 26/15/77 30/20/78 42/22/72 
f 43/21/71 44/23/74 20/14/79 
f 20/14/79 26/15/77 43/21/71 
f 44/23/74 34/24/76 17/13/80 
f 17/13/80 20/14/79 44/23/74 
# 84 faces

